<?xml version="1.0" standalone="no"?>
<!DOCTYPE svg PUBLIC "-//W3C//DTD SVG 20010904//EN"
 "http://www.w3.org/TR/2001/REC-SVG-20010904/DTD/svg10.dtd">
<svg version="1.0" xmlns="http://www.w3.org/2000/svg"
 width="1080.000000pt" height="1079.000000pt" viewBox="0 0 1080.000000 1079.000000"
 preserveAspectRatio="xMidYMid meet">
<metadata>
Created by potrace 1.16, written by Peter Selinger 2001-2019
</metadata>
<g transform="translate(0.000000,1079.000000) scale(0.100000,-0.100000)"
fill="#000000" stroke="none">
<path d="M6372 9828 c-6 -6 -12 -22 -12 -34 0 -36 -10 -52 -46 -74 -64 -40
-89 -42 -130 -9 -20 16 -48 44 -61 62 -24 32 -51 45 -111 52 -22 2 -32 0 -29
-8 2 -7 12 -13 23 -13 10 -1 25 -2 31 -3 25 -2 93 -73 93 -97 0 -12 5 -26 10
-29 16 -10 12 -52 -6 -59 -23 -9 -24 -8 -24 14 0 24 -15 27 -24 4 -3 -8 -11
-12 -17 -9 -6 4 -8 13 -5 20 11 31 -124 138 -186 149 -46 8 -50 -7 -8 -24 17
-7 30 -17 30 -22 0 -5 9 -6 21 -3 15 5 22 2 26 -13 2 -11 13 -22 24 -25 22 -6
26 -37 4 -37 -8 0 -15 -4 -15 -10 0 -5 9 -10 20 -10 13 0 20 -7 20 -18 0 -10
5 -23 10 -28 13 -13 -7 -74 -25 -74 -20 0 -37 26 -33 52 2 15 -2 22 -11 20
-10 -2 -12 4 -7 23 7 26 5 26 -24 20 -25 -5 -38 -1 -68 21 -54 41 -61 47 -81
65 -15 13 -34 16 -92 12 -40 -2 -82 -10 -94 -16 -11 -6 -28 -12 -38 -14 -10
-2 -35 -14 -55 -28 -20 -14 -45 -25 -55 -25 -20 0 -79 -28 -88 -42 -9 -14 -82
-48 -104 -48 -19 0 -38 -10 -98 -53 -14 -10 -46 -20 -71 -22 -53 -3 -76 -18
-76 -49 0 -29 -44 -50 -62 -29 -11 14 -80 53 -93 53 -3 0 -1 -9 5 -20 6 -11
20 -20 30 -20 11 0 20 -4 20 -10 0 -15 -13 -13 -92 19 -59 22 -86 28 -137 25
-35 -1 -68 -7 -74 -13 -7 -7 -15 -7 -22 -1 -8 6 -22 7 -35 2 -22 -8 -22 -9 -4
-17 10 -4 30 -7 44 -5 24 2 24 1 7 -17 -9 -11 -35 -26 -57 -33 -22 -7 -47 -21
-56 -32 -10 -10 -22 -18 -28 -18 -19 0 -107 -92 -104 -109 1 -9 -1 -22 -5 -28
-6 -9 -1 -13 15 -13 13 0 29 -5 35 -11 8 -8 15 -3 27 18 17 33 117 85 124 64
2 -7 13 -4 29 9 29 23 121 28 141 8 9 -9 12 -9 12 0 0 20 16 13 30 -13 7 -14
19 -25 27 -25 7 0 13 -4 13 -10 0 -5 -6 -10 -14 -10 -8 0 -18 -9 -21 -21 -5
-14 -13 -19 -26 -16 -12 3 -24 -3 -34 -19 -15 -23 -17 -23 -41 -8 -13 9 -26
15 -27 13 -1 -2 -7 -13 -13 -24 -14 -26 -51 -31 -73 -11 -26 24 -86 4 -99 -33
-7 -19 -16 -27 -31 -26 -32 2 -37 14 -13 31 12 8 22 20 22 26 0 6 -3 8 -7 5
-3 -4 -15 0 -25 10 -16 14 -20 15 -31 2 -20 -25 -80 -66 -130 -89 -37 -17 -47
-27 -47 -46 0 -14 -7 -27 -15 -30 -8 -3 -33 -34 -56 -68 -22 -33 -46 -61 -52
-61 -7 0 -13 -9 -15 -20 -7 -48 -13 -65 -28 -80 -12 -12 -13 -19 -5 -29 6 -7
9 -21 5 -30 -3 -9 -2 -16 4 -16 5 0 13 12 16 26 4 15 22 43 41 63 19 20 35 46
35 57 0 23 24 39 42 28 6 -4 8 4 4 23 -6 25 -3 31 20 42 23 10 29 10 36 -3 5
-8 15 -13 23 -9 9 3 22 0 31 -7 11 -10 18 -10 26 -2 17 17 28 15 28 -6 0 -23
-40 -62 -63 -62 -9 0 -17 -7 -17 -15 0 -9 -10 -15 -22 -16 -13 -1 -28 -2 -33
-3 -20 -2 -171 -161 -184 -194 -15 -35 -37 -42 -44 -14 -4 13 -5 12 -6 -5 0
-12 4 -23 10 -25 8 -3 7 -21 -1 -66 -10 -46 -10 -72 -1 -106 6 -25 11 -57 11
-72 0 -15 5 -42 12 -60 9 -25 9 -39 1 -56 -20 -40 -21 -52 -8 -85 8 -17 12
-33 11 -35 -2 -2 -6 -27 -10 -56 -7 -52 -6 -52 17 -47 22 6 25 3 32 -37 4 -24
7 -55 6 -70 -1 -14 2 -29 7 -32 7 -4 6 -23 -2 -54 -7 -26 -11 -52 -9 -59 2 -6
-5 -28 -16 -49 -26 -47 -26 -62 -2 -94 15 -19 17 -29 9 -44 -10 -18 -14 -39
-23 -126 -2 -19 -4 -35 -5 -35 -1 0 -3 -47 -5 -104 -3 -57 -8 -108 -13 -115
-4 -6 -7 -32 -6 -58 2 -41 -1 -48 -17 -48 -14 0 -19 -7 -19 -26 0 -14 4 -23
10 -19 6 3 10 -1 10 -9 0 -9 4 -16 9 -16 5 0 16 -16 25 -35 11 -23 21 -32 31
-29 8 4 15 10 15 15 0 5 12 9 26 9 22 0 25 -4 23 -27 -4 -42 9 -70 36 -77 26
-7 37 -41 30 -91 -11 -68 -14 -215 -5 -215 6 0 10 -5 10 -11 0 -5 -4 -8 -8 -5
-11 7 -28 -69 -48 -214 -10 -75 -15 -189 -15 -327 0 -117 -4 -215 -9 -218 -5
-3 -19 -19 -30 -35 l-21 -30 27 -27 c34 -33 33 -32 37 -283 3 -235 12 -382 28
-443 5 -23 14 -60 19 -82 5 -22 16 -60 24 -84 9 -24 16 -50 16 -58 0 -8 10
-28 21 -45 12 -16 33 -57 48 -91 29 -69 90 -167 103 -167 5 0 8 -6 6 -12 -4
-23 40 -94 76 -122 20 -15 36 -35 36 -45 0 -11 7 -22 16 -25 9 -3 12 -11 8
-18 -5 -9 -3 -9 9 1 15 12 17 11 17 -4 0 -18 74 -92 102 -100 9 -4 23 -21 29
-40 9 -23 17 -31 27 -27 12 4 14 1 8 -13 -7 -18 22 -55 43 -55 5 0 13 -10 17
-22 4 -13 15 -29 25 -36 11 -7 19 -20 19 -28 0 -8 4 -14 9 -14 11 0 25 -36 26
-65 0 -11 6 -20 14 -20 8 0 19 -9 25 -20 6 -11 14 -22 17 -25 3 -3 12 -20 20
-37 8 -19 21 -33 31 -33 9 0 19 -4 23 -10 3 -5 12 -7 20 -4 15 6 39 -31 30
-46 -3 -6 -1 -10 5 -10 10 0 42 -61 45 -85 0 -5 6 -9 12 -8 6 1 14 -11 18 -27
4 -17 13 -30 20 -30 42 0 7 -53 -36 -56 -26 -2 -39 -13 -33 -29 6 -15 -59 -86
-86 -95 -8 -2 -44 -4 -80 -5 -36 0 -71 -4 -77 -8 -8 -5 -13 -3 -14 5 0 7 -5 3
-11 -10 -6 -12 -16 -22 -22 -23 -6 -1 -19 -2 -28 -3 -10 0 -18 -5 -17 -9 0 -5
-8 -16 -19 -25 -10 -9 -17 -22 -15 -28 2 -6 -5 -14 -17 -17 -11 -3 -20 -1 -20
4 0 5 5 9 10 9 6 0 10 5 10 10 0 6 -7 10 -15 10 -8 0 -15 -7 -15 -15 0 -9 -9
-15 -25 -15 -14 0 -25 -4 -25 -9 0 -16 -131 -10 -137 5 -3 8 -13 14 -23 14
-10 0 -30 16 -46 35 -15 19 -35 35 -45 35 -9 0 -23 10 -32 23 -28 41 -52 64
-64 60 -7 -3 -13 3 -13 12 0 9 -5 21 -10 28 -6 7 -24 27 -40 46 -17 19 -30 40
-30 47 0 7 -6 17 -14 21 -7 4 -31 44 -52 88 -21 44 -42 82 -46 85 -10 8 -76
181 -110 290 -81 263 -105 500 -85 855 4 77 10 187 13 245 3 58 9 146 13 195
5 50 9 151 10 225 1 74 4 156 7 181 6 42 4 47 -17 52 -13 4 -34 7 -45 7 -35 0
-129 110 -155 180 -17 47 -26 60 -38 55 -9 -4 -34 -10 -56 -15 -95 -21 -259
-61 -375 -91 -69 -18 -161 -40 -204 -49 -44 -8 -81 -21 -84 -28 -2 -7 -16 -12
-30 -12 -15 0 -81 -10 -147 -21 -66 -11 -151 -25 -190 -31 -38 -5 -74 -14 -80
-20 -6 -6 -3 -7 10 -3 16 5 17 4 5 -3 -8 -6 -49 -13 -90 -16 -193 -16 -250
-26 -377 -67 -76 -25 -504 -201 -543 -224 -14 -8 -59 -33 -101 -56 -47 -26
-156 -108 -290 -220 -118 -99 -243 -199 -279 -223 -36 -24 -109 -84 -161 -132
-52 -49 -140 -129 -195 -178 -122 -109 -176 -171 -234 -266 -33 -55 -60 -84
-107 -118 l-63 -46 0 -2038 0 -2038 3961 0 c3763 0 3961 1 3954 18 -3 9 -14
69 -22 132 l-16 115 75 190 c41 105 80 220 87 256 25 146 5 475 -41 669 -21
91 -70 226 -93 255 -12 17 -68 68 -123 114 l-100 84 -8 116 c-10 164 2 432 22
506 9 33 23 82 30 110 8 28 14 98 14 163 0 93 -6 141 -36 275 l-36 162 22 60
c30 82 35 200 21 512 -13 285 -23 336 -89 471 -30 62 -47 83 -105 129 -80 64
-167 119 -269 169 -40 19 -84 41 -98 48 -14 8 -43 20 -64 26 -22 7 -57 25 -79
41 -21 15 -44 30 -50 32 -9 3 -7 14 7 38 63 116 81 147 97 168 11 13 19 28 19
34 0 6 10 24 23 41 13 17 30 45 39 61 8 17 38 71 67 120 52 89 85 171 75 187
-3 4 -1 8 4 8 13 0 36 54 71 168 17 56 29 108 25 114 -4 7 -3 8 4 4 8 -5 12 1
13 16 3 48 9 77 43 193 58 200 77 277 72 292 -3 7 -1 13 4 13 6 0 8 16 5 38
-4 27 -3 33 4 22 10 -13 11 -13 11 0 0 29 58 198 82 241 14 24 31 64 38 89 7
25 17 49 22 55 4 5 8 17 8 27 0 20 93 115 153 156 39 26 101 107 131 173 27
56 41 77 66 97 18 15 24 30 25 67 2 33 7 50 19 57 9 5 16 16 16 23 0 13 13 20
23 13 11 -8 48 29 55 55 6 25 16 35 43 43 34 11 34 12 39 80 3 42 15 89 29
119 17 37 25 74 28 146 5 95 5 96 -23 122 -24 22 -26 29 -17 49 11 23 27 80
38 131 20 96 -86 217 -190 217 -27 0 -45 5 -45 11 0 7 -11 22 -26 35 l-25 24
43 50 c28 33 51 50 66 50 31 0 39 26 16 51 -32 35 -48 39 -100 23 -45 -13 -50
-13 -74 4 -14 11 -29 33 -34 51 -5 17 -13 31 -17 31 -5 0 -9 18 -9 39 0 51
-33 122 -120 257 -14 22 -24 43 -22 47 1 4 -4 10 -12 13 -8 3 -13 11 -10 18 3
7 -5 25 -18 41 -71 84 -72 85 -115 89 -48 4 -113 47 -113 74 0 19 -69 92 -85
92 -6 0 -36 12 -67 27 -39 18 -58 33 -58 45 0 16 -7 17 -58 12 -56 -6 -61 -5
-118 34 -89 62 -184 157 -184 186 0 9 -23 22 -62 34 -108 34 -152 42 -198 36
-78 -10 -97 -8 -129 15 -30 21 -31 25 -31 92 0 74 -14 95 -45 69 -9 -7 -19
-10 -22 -6 -9 9 17 26 40 26 9 0 17 2 17 4 0 16 -41 94 -56 108 -27 23 -67 31
-82 16z m-1252 -1979 c0 -16 3 -17 19 -8 20 13 51 6 51 -11 0 -6 -4 -9 -9 -5
-5 3 -12 1 -16 -4 -8 -14 33 -34 56 -28 10 3 22 1 25 -4 3 -5 18 -9 34 -9 16
0 32 -5 35 -10 4 -6 10 -8 15 -5 5 3 11 1 14 -4 4 -5 2 -13 -4 -16 -8 -5 -7
-11 1 -21 13 -16 63 -11 87 8 19 16 15 -12 -5 -34 -26 -29 -10 -30 28 -3 29
22 35 24 45 11 12 -18 34 -3 34 24 1 13 2 12 10 -2 8 -12 5 -27 -10 -53 -25
-45 -25 -59 0 -52 17 4 19 1 14 -18 -3 -12 -1 -26 5 -29 6 -4 11 -20 11 -36 0
-17 7 -33 18 -39 10 -6 12 -11 4 -11 -7 0 -11 -4 -8 -9 9 -14 59 -10 77 5 16
14 52 14 65 1 4 -4 12 -7 17 -7 17 0 -15 30 -32 30 -23 1 -52 25 -48 41 2 8 2
11 0 7 -7 -12 -30 -9 -42 6 -8 9 -8 21 0 45 14 40 25 39 43 -1 9 -21 15 -27
15 -15 1 10 -4 28 -10 39 -10 18 -9 20 6 14 12 -4 16 -2 12 8 -4 9 3 16 21 19
37 7 42 2 42 -41 0 -20 7 -46 15 -56 15 -19 15 -19 16 2 3 41 4 45 15 49 8 3
12 -14 11 -51 -1 -30 -5 -52 -9 -50 -4 3 -8 3 -8 0 0 -6 55 -36 65 -36 3 0 5
9 5 19 0 11 5 23 10 26 6 3 10 15 10 26 0 10 5 19 10 19 6 0 9 -5 8 -11 -2 -7
16 -12 44 -13 26 -1 51 -5 54 -9 4 -4 -8 -20 -26 -37 -26 -24 -29 -30 -13 -30
10 0 24 9 31 21 7 12 16 18 19 15 3 -3 0 -12 -7 -21 -8 -9 -9 -15 -2 -15 6 0
16 8 21 18 9 15 10 15 11 1 0 -25 30 -32 46 -12 8 10 6 -2 -5 -29 -19 -45 -19
-46 -1 -51 11 -3 21 0 23 6 2 7 16 11 32 9 16 -1 32 4 37 10 11 19 62 -12 66
-40 4 -27 31 -41 42 -21 7 11 13 11 35 -1 19 -10 28 -11 37 -2 9 9 9 15 0 24
-18 18 -15 24 16 23 15 -1 33 4 41 9 11 8 13 8 8 0 -7 -12 43 -74 61 -74 6 0
18 -8 28 -17 16 -16 16 -16 10 5 -6 17 -4 21 9 16 22 -9 38 -41 24 -50 -7 -4
-8 -9 0 -17 7 -7 14 -7 23 1 9 7 19 7 28 2 10 -6 11 -10 3 -10 -7 0 -10 -7 -6
-16 5 -13 2 -15 -15 -9 -13 3 -22 2 -22 -4 0 -5 9 -13 20 -16 15 -5 19 -13 16
-31 -4 -20 -1 -24 22 -24 21 0 24 -2 12 -10 -13 -8 -13 -11 2 -26 16 -17 18
-17 24 0 5 14 9 15 15 4 7 -11 9 -11 9 1 0 11 3 11 15 1 12 -10 15 -10 15 0 0
9 4 9 17 -1 11 -10 14 -10 9 -1 -4 6 -3 12 3 12 17 0 24 -22 10 -31 -10 -6 -6
-11 16 -20 17 -7 34 -11 40 -10 5 1 15 -6 22 -15 8 -11 13 -13 13 -5 0 7 9 11
22 9 31 -4 55 -54 39 -80 -8 -12 -8 -18 0 -18 5 0 8 -4 5 -9 -10 -15 5 -40 20
-34 10 4 12 0 8 -13 -4 -11 -3 -16 1 -11 5 4 19 -3 32 -14 l23 -22 26 26 c29
29 13 38 -18 10 -17 -15 -19 -15 -32 3 -8 10 -12 22 -10 26 3 5 0 8 -7 8 -8 0
-8 4 1 15 10 12 10 15 -4 15 -9 0 -16 5 -16 11 0 5 5 7 10 4 6 -3 10 -1 10 4
0 6 -4 11 -10 11 -5 0 -10 5 -10 11 0 6 6 9 14 6 10 -4 12 0 9 14 -3 10 0 19
6 19 6 0 11 -5 11 -11 0 -5 5 -7 10 -4 7 4 9 -2 4 -19 -5 -20 -2 -26 10 -26
10 0 16 -8 16 -21 0 -15 4 -19 16 -15 12 5 15 2 10 -10 -4 -12 -2 -15 9 -11 8
4 17 2 20 -3 4 -6 11 -10 16 -10 6 0 7 5 4 10 -3 6 -1 10 5 10 14 0 3 -40 -15
-55 -7 -5 -15 -17 -18 -25 -4 -10 -6 -8 -6 7 -1 12 4 25 9 28 6 3 10 11 10 16
0 6 -13 0 -29 -13 -31 -24 -41 -44 -18 -35 8 3 13 -3 13 -14 0 -11 -6 -19 -13
-19 -7 0 -13 5 -13 12 0 6 -9 3 -20 -7 -11 -10 -20 -23 -20 -28 0 -6 10 -2 21
9 22 19 22 19 15 -6 -3 -14 -3 -19 0 -12 8 17 24 15 24 -3 0 -8 -5 -15 -11
-15 -5 0 -7 -5 -3 -12 5 -8 12 -3 19 16 8 19 15 25 20 17 4 -7 5 -15 2 -18 -6
-5 37 -53 48 -53 3 0 5 6 3 14 -2 8 2 14 7 14 6 -1 9 -10 7 -20 -2 -13 4 -21
18 -25 12 -3 19 -11 16 -18 -8 -21 6 -26 24 -10 14 13 16 12 17 -6 3 -29 12
-36 24 -19 9 12 10 12 5 -2 -3 -10 -2 -26 1 -35 6 -15 7 -15 13 3 7 18 7 18
18 -1 14 -28 -10 -64 -32 -46 -11 9 -15 9 -18 0 -2 -7 -13 -13 -24 -14 -38 -3
-62 -16 -67 -35 -5 -18 -36 -27 -70 -21 -5 1 -5 -8 -2 -20 6 -19 4 -21 -14
-16 -11 3 -23 2 -26 -3 -3 -4 -21 -6 -40 -4 -25 2 -38 -2 -42 -12 -4 -11 -15
-13 -48 -8 -27 4 -45 2 -50 -5 -3 -6 -11 -9 -16 -6 -5 4 -9 2 -9 -3 0 -5 -10
-20 -22 -33 -13 -15 -19 -18 -15 -7 18 50 -46 -13 -66 -65 -4 -9 -22 -27 -42
-38 -19 -12 -35 -24 -35 -27 0 -4 -12 -20 -26 -37 -14 -16 -30 -40 -35 -53 -5
-13 -13 -21 -18 -18 -5 4 -9 -9 -8 -26 1 -23 -5 -40 -20 -54 -13 -12 -23 -33
-23 -48 0 -26 -5 -36 -41 -75 -10 -12 -14 -30 -11 -54 2 -22 0 -37 -6 -37 -19
0 -31 -65 -36 -197 -1 -29 -5 -43 -15 -43 -11 0 -11 -3 -1 -15 6 -8 9 -19 5
-26 -4 -6 -2 -21 5 -34 11 -20 10 -26 -5 -41 -10 -10 -15 -27 -12 -41 2 -12 0
-23 -5 -23 -6 0 -7 -7 -4 -16 4 -9 1 -23 -5 -30 -9 -11 -8 -14 6 -14 14 0 15
-3 5 -15 -7 -8 -8 -15 -3 -15 5 0 10 -7 10 -15 0 -8 -4 -15 -7 -15 -4 0 -14
-20 -22 -45 -14 -41 -9 -61 8 -34 13 21 36 -38 24 -61 -15 -28 -19 -25 -15 10
2 17 0 30 -5 30 -5 0 -10 -19 -12 -42 -2 -28 -7 -42 -15 -40 -7 1 -13 -5 -13
-14 0 -9 -7 -22 -15 -28 -19 -14 -9 -86 11 -86 8 0 14 -6 14 -12 0 -9 4 -8 10
2 8 13 10 13 10 1 0 -11 4 -9 15 5 13 18 14 18 8 -6 -4 -14 -14 -31 -22 -38
-12 -10 -13 -15 -3 -18 21 -9 14 -33 -8 -27 -12 3 -20 0 -20 -7 0 -13 -57 -70
-70 -70 -4 0 -11 -7 -14 -16 -6 -15 -8 -15 -24 -2 -21 19 -124 17 -147 -2 -13
-10 -19 -9 -35 5 -16 14 -20 15 -20 4 0 -25 -43 -16 -78 15 -32 29 -72 42 -72
24 0 -5 -10 -6 -22 -2 -13 4 -32 8 -43 10 -11 1 -20 3 -20 4 0 9 -76 4 -97 -7
-34 -16 -38 -16 -38 1 0 8 -5 18 -12 22 -7 5 -9 2 -5 -9 3 -8 -1 -21 -9 -28
-13 -11 -15 -8 -10 17 4 21 2 19 -7 -8 -16 -49 -23 -54 -46 -34 -13 12 -27 15
-42 11 -12 -4 -19 -3 -16 2 4 5 -1 10 -9 10 -9 0 -20 -11 -25 -25 -9 -23 -11
-24 -27 -8 -15 12 -21 13 -31 3 -10 -9 -11 -8 -6 5 9 23 -3 23 -27 1 -18 -16
-18 -16 -12 2 7 17 3 16 -32 -5 l-39 -25 23 30 c27 34 13 46 -20 16 -28 -27
-42 -27 -28 0 11 19 10 20 -9 10 -16 -9 -22 -8 -31 6 -8 12 -13 14 -16 6 -3
-7 -12 -9 -20 -6 -8 3 -14 0 -14 -6 0 -6 -6 -11 -12 -11 -7 0 -35 -22 -61 -49
-33 -34 -54 -48 -65 -44 -10 4 -14 2 -9 -2 4 -5 -1 -17 -10 -28 -15 -17 -16
-20 -2 -15 9 4 21 3 28 -2 9 -5 4 -14 -18 -29 -17 -12 -31 -18 -31 -12 0 6 5
11 10 11 6 0 10 5 10 10 0 20 -37 -13 -48 -43 -6 -17 -10 -32 -9 -34 2 -1 18
8 37 22 18 13 37 22 41 19 12 -7 11 -44 -1 -44 -24 0 -7 -29 26 -45 23 -11 34
-22 30 -31 -7 -18 63 -10 106 12 47 24 108 0 108 -42 0 -14 3 -14 15 -4 9 7
14 19 11 26 -6 15 15 14 26 0 4 -6 12 -5 21 3 9 7 18 8 21 3 3 -5 27 -15 53
-22 27 -7 53 -19 60 -27 6 -9 17 -12 24 -7 7 4 10 3 5 -4 -4 -6 4 -12 21 -14
17 -2 28 -9 28 -18 1 -8 6 -24 12 -36 25 -45 -1 -110 -33 -83 -15 12 -16 12
-10 -9 19 -68 19 -64 -4 -57 -20 6 -20 5 -8 -14 7 -12 19 -19 25 -16 7 2 13
-1 13 -7 0 -7 5 -6 15 2 12 10 15 9 15 -5 0 -15 2 -16 18 -4 15 12 16 12 5 -2
-7 -9 -10 -19 -6 -22 3 -4 1 -7 -5 -7 -7 0 -12 4 -12 9 0 15 -41 20 -60 8 -13
-8 -28 -8 -52 -1 -24 8 -37 8 -45 0 -29 -27 -43 -36 -57 -36 -16 0 -31 -18
-22 -27 3 -3 13 0 22 8 16 13 17 12 11 -10 -4 -18 0 -30 17 -46 12 -11 25 -29
29 -38 4 -10 11 -15 17 -12 5 3 10 -1 10 -10 0 -11 -5 -15 -15 -12 -8 4 -17 2
-20 -3 -9 -14 29 -12 43 2 15 15 40 -6 58 -48 10 -24 19 -31 37 -29 21 3 26
-3 38 -48 11 -42 14 -46 19 -26 l6 24 6 -24 c5 -18 2 -24 -13 -28 -16 -5 -24
-16 -17 -25 1 -2 -4 -13 -10 -25 -9 -16 -9 -22 0 -25 9 -3 8 -9 -4 -22 -13
-13 -16 -27 -11 -68 7 -56 -8 -61 -29 -10 -9 22 -12 24 -15 10 -6 -25 -18 -22
-44 10 -14 17 -23 22 -26 15 -3 -7 -9 -13 -15 -13 -6 0 -8 7 -4 15 11 29 -12
15 -24 -15 -15 -35 -36 -53 -26 -22 5 16 3 20 -11 18 -10 -2 -20 -13 -23 -25
-3 -12 -9 -22 -15 -21 -12 2 -7 30 7 48 6 7 8 15 5 19 -4 3 -16 -5 -27 -18
-16 -20 -21 -22 -29 -9 -9 12 -11 12 -17 -3 -3 -9 -12 -17 -20 -17 -8 0 -11 6
-8 15 4 8 1 15 -6 15 -6 0 -8 5 -4 13 5 8 2 8 -9 -2 -21 -17 -22 -3 -1 27 8
12 11 22 5 22 -6 0 -15 -9 -22 -21 -8 -15 -14 -18 -22 -10 -7 7 -5 25 6 62 20
62 22 78 5 61 -17 -17 -38 -15 -38 4 0 8 -5 12 -11 9 -6 -4 -8 -14 -4 -22 6
-18 -21 -53 -41 -53 -10 0 -10 8 2 37 15 34 15 36 0 24 -26 -22 -28 -7 -4 24
l21 27 -24 -7 c-28 -9 -68 -37 -69 -47 0 -5 -12 -8 -27 -8 -26 0 -26 0 -7 23
10 12 12 16 4 9 -20 -17 -30 -15 -30 7 0 12 10 21 28 26 l27 7 -24 9 c-19 8
-27 5 -38 -11 -8 -12 -21 -19 -29 -16 -21 8 -44 -4 -38 -19 3 -7 1 -16 -4 -19
-5 -3 -9 2 -8 11 0 10 -9 19 -24 23 -26 7 -27 11 -14 44 6 17 4 18 -21 12 -26
-7 -27 -6 -15 9 8 10 10 19 4 23 -14 11 -16 42 -3 58 11 13 10 15 -8 13 -13
-1 -21 36 -11 49 7 8 6 17 -2 27 -10 12 -10 15 1 16 10 0 11 2 2 6 -7 2 -13
13 -13 24 0 21 -12 18 -55 -16 -16 -13 -17 -17 -6 -25 12 -7 12 -12 -3 -34
-21 -33 -29 -33 -51 0 -14 22 -15 28 -4 35 9 6 10 9 2 9 -6 0 -14 8 -17 18 -5
14 -14 17 -36 14 -24 -3 -32 0 -41 22 -7 14 -18 26 -25 26 -6 0 -14 7 -18 15
-3 8 0 15 6 15 7 0 5 6 -4 13 -20 14 -41 88 -32 111 3 9 2 16 -4 16 -6 0 -12
-6 -15 -12 -4 -14 -37 44 -36 64 0 7 5 2 11 -12 11 -25 12 -25 15 -3 3 12 -1
32 -8 44 -10 19 -9 21 6 15 10 -3 23 -2 30 4 18 15 -3 60 -24 52 -9 -3 -12 -1
-7 6 4 6 -2 30 -13 52 -11 23 -17 48 -14 56 3 8 -1 14 -10 14 -10 0 -13 8 -9
25 3 20 1 24 -12 19 -13 -5 -16 1 -16 36 0 28 -4 39 -11 34 -9 -5 -10 1 -5 20
3 14 2 26 -3 26 -15 0 -33 59 -34 113 0 34 -15 35 -23 2 -8 -33 -20 -24 -22
18 -1 39 -27 95 -35 75 -2 -7 -3 -38 -1 -68 l4 -55 -17 47 c-10 26 -21 50 -25
54 -13 12 -9 24 7 24 8 0 15 2 15 4 0 2 3 13 6 23 4 14 4 15 -4 4 -14 -19 -29
-7 -36 31 -15 80 -17 108 -8 108 9 0 23 -24 27 -45 3 -24 18 -43 36 -48 16 -4
19 0 19 33 0 22 -4 42 -10 45 -5 3 -10 24 -10 45 0 37 -20 66 -28 42 -13 -39
-56 14 -45 56 2 11 0 23 -6 26 -13 8 -14 65 -2 84 4 7 5 31 1 53 -9 46 -2 49
29 13 12 -14 26 -23 29 -19 4 4 1 10 -5 12 -7 3 -13 11 -13 18 0 7 -7 15 -15
19 -8 3 -15 12 -15 21 0 8 -4 15 -10 15 -5 0 -10 7 -10 16 0 8 -7 22 -15 30
-22 22 -18 53 8 64 18 7 18 9 4 9 -10 1 -16 5 -13 10 3 5 1 23 -5 40 -7 18 -7
37 -2 44 10 14 10 42 -1 80 -6 18 -4 32 4 42 11 13 10 14 -2 10 -14 -5 -15 3
-11 54 4 41 2 61 -5 61 -6 0 -9 7 -5 16 3 9 0 20 -7 24 -8 5 -10 15 -5 26 7
18 8 18 15 -1 8 -17 9 -18 9 -2 1 10 -7 21 -16 25 -19 7 -29 72 -12 72 5 0 9
14 9 31 0 17 4 28 10 24 6 -3 10 5 10 19 0 14 -4 28 -10 31 -5 3 -10 18 -10
33 0 21 2 24 10 12 13 -20 13 -4 0 20 -8 15 -6 21 7 29 10 6 12 11 6 11 -15 0
-18 30 -3 30 5 0 7 7 4 15 -4 8 -2 15 4 15 5 0 9 28 9 63 0 79 10 124 28 124
18 0 18 3 -1 -36 -9 -17 -13 -39 -10 -48 4 -9 1 -20 -5 -24 -9 -5 -7 -15 5
-39 9 -18 16 -39 16 -47 0 -7 5 -13 10 -13 6 0 10 12 10 26 0 14 14 56 32 93
18 36 33 72 34 80 2 8 9 18 17 23 12 6 24 41 28 83 0 6 6 24 13 40 6 17 11 53
11 80 -1 30 6 66 17 89 10 22 18 52 18 67 0 37 33 88 104 161 50 51 61 58 71
45 13 -18 58 -12 76 9 9 11 8 14 -5 14 -9 0 -16 4 -16 8 0 11 43 13 50 1 10
-15 66 -19 99 -6 34 12 47 35 31 51 -5 5 -10 25 -10 43 0 28 4 33 23 33 20 -1
20 -2 5 -11 -10 -5 -18 -14 -18 -20 0 -5 11 -2 26 7 14 9 23 23 20 30 -3 8 -1
14 4 14 13 0 40 67 45 110 2 19 1 29 -1 23 -3 -7 -11 -13 -18 -13 -23 0 -35
-21 -23 -41 9 -15 7 -22 -12 -40 l-23 -22 7 22 c8 25 2 27 -20 5 -9 -9 -19
-13 -23 -9 -12 11 31 36 51 29 13 -4 17 -2 13 5 -4 6 -18 11 -32 11 -30 0 -31
14 -2 34 12 9 17 16 10 16 -6 0 -12 5 -12 10 0 6 5 10 10 10 6 0 20 9 32 20
12 11 18 20 14 20 -5 0 -3 6 4 14 6 8 18 12 26 9 8 -3 14 0 14 6 0 6 -5 10
-11 9 -6 -2 -14 3 -17 11 -3 9 0 11 8 6 8 -5 11 -4 7 3 -9 13 2 42 15 42 5 0
17 7 25 16 13 12 13 18 4 24 -10 5 -7 12 10 24 13 9 29 16 36 16 7 0 10 7 7
15 -4 9 -1 15 8 15 7 0 24 10 38 23 52 48 80 54 80 16z m1941 -1649 c13 -7 25
-7 38 0 14 7 27 6 47 -5 15 -8 31 -12 34 -10 4 2 13 -6 20 -20 8 -15 18 -21
29 -18 9 4 13 3 9 -1 -3 -4 2 -16 13 -27 10 -10 19 -25 19 -33 0 -21 -27 -27
-44 -10 -8 8 -17 10 -20 5 -4 -5 -19 -3 -35 5 -35 18 -153 44 -198 44 -18 0
-33 5 -33 11 0 6 -9 8 -21 4 -15 -5 -19 -4 -15 4 4 6 13 11 21 11 7 0 20 6 28
14 12 12 27 18 85 35 2 1 12 -4 23 -9z m-261 -364 c12 12 81 9 115 -5 32 -13
135 -31 149 -25 7 3 36 -4 65 -16 28 -11 63 -20 76 -20 29 0 43 -19 24 -31
-10 -6 -11 -9 -1 -9 6 0 12 -5 12 -11 0 -6 -6 -9 -14 -6 -7 3 -31 1 -52 -4
-22 -5 -55 -12 -74 -14 -19 -3 -37 -9 -40 -13 -3 -4 -16 -7 -29 -6 -14 1 -37
-2 -52 -6 -14 -4 -32 -4 -39 0 -15 9 -40 2 -40 -11 0 -5 11 -7 24 -3 14 3 29
0 38 -9 7 -8 24 -18 36 -21 21 -7 27 -22 23 -55 -2 -7 2 -10 7 -7 11 7 23 -30
15 -49 -2 -8 -12 -11 -20 -8 -13 5 -15 2 -11 -15 4 -13 2 -20 -3 -16 -6 3 -15
2 -22 -3 -7 -5 -18 -8 -24 -7 -7 1 -17 2 -23 3 -5 0 -10 8 -10 16 0 8 -4 15
-9 15 -6 0 -9 -12 -8 -27 2 -21 -3 -28 -18 -29 -11 -1 -32 -5 -47 -9 -23 -6
-29 -3 -37 16 -6 17 -5 26 5 32 8 5 12 12 9 16 -2 5 3 15 12 22 14 12 15 11 9
-9 -6 -18 -4 -22 13 -22 12 0 21 5 21 10 0 6 -5 10 -11 10 -5 0 -7 5 -4 10 3
6 15 10 26 10 22 0 26 16 4 18 -29 4 -40 3 -73 -2 -31 -5 -33 -4 -20 11 9 12
9 15 1 9 -7 -4 -13 -2 -13 3 0 15 -47 14 -54 -1 -3 -7 -4 -4 -3 7 2 14 9 19
25 18 12 -2 22 0 22 3 0 15 -22 44 -34 44 -8 0 -16 11 -19 25 -4 24 -3 25 14
9 9 -8 26 -14 36 -12 15 4 13 7 -9 18 -22 10 -25 16 -17 27 14 16 39 17 39 1
0 -9 3 -9 9 1 12 18 -2 56 -20 56 -15 0 -39 19 -39 30 0 3 5 3 10 0 14 -9 12
8 -2 24 -11 11 -10 13 0 7 7 -4 15 0 18 9 5 13 8 14 15 3 6 -9 11 -10 19 -2z
m-1378 -1161 c-2 -14 0 -25 6 -25 6 0 13 -8 15 -17 3 -12 5 -10 6 7 1 14 6 32
11 40 8 12 10 10 10 -10 1 -23 2 -24 14 -7 12 16 15 15 30 -18 19 -40 32 -44
41 -15 3 11 13 20 21 20 8 0 14 7 14 16 0 10 7 7 25 -12 15 -16 25 -21 25 -13
0 7 8 2 17 -11 9 -14 18 -27 19 -28 4 -6 36 14 37 24 1 5 7 7 12 5 6 -3 21 -5
35 -5 14 -1 31 -5 38 -9 6 -5 16 -6 20 -3 5 3 19 -4 30 -15 12 -11 22 -15 22
-9 0 10 65 -23 80 -40 9 -10 59 -5 71 7 9 9 17 7 32 -7 11 -11 24 -17 29 -14
4 3 8 0 8 -6 0 -6 -12 -15 -27 -20 -16 -6 -36 -15 -46 -20 -17 -10 -62 -4 -82
10 -5 4 -28 13 -50 19 -22 7 -47 15 -55 18 -8 3 -19 7 -25 8 -5 1 -12 3 -15 4
-17 8 -60 10 -60 3 0 -9 -16 -8 -90 2 -46 6 -80 18 -80 28 0 6 -5 6 -14 -1
-19 -16 -76 -5 -102 20 -21 20 -43 11 -29 -11 3 -5 2 -10 -4 -10 -5 0 -13 5
-16 10 -3 6 -20 10 -37 10 l-31 0 23 25 c14 15 18 25 11 25 -11 0 -11 3 -1 15
11 13 14 13 26 -2 12 -17 13 -16 23 10 13 34 20 35 13 2z m298 -799 c0 -9 7
-12 21 -9 16 5 20 2 17 -8 -3 -8 -10 -13 -15 -12 -5 1 -8 -16 -6 -38 2 -21 -1
-39 -7 -39 -5 0 -7 -7 -4 -15 4 -9 -4 -25 -20 -40 l-26 -24 0 37 c-1 30 -3 34
-11 20 -24 -43 -42 -8 -24 46 13 36 13 37 -6 20 -10 -9 -16 -20 -14 -25 3 -4
1 -10 -5 -14 -14 -9 -12 7 6 43 8 18 20 32 26 32 5 0 8 7 4 15 -7 18 5 20 23
3 11 -11 13 -10 8 5 -5 12 -1 17 13 17 11 0 20 -6 20 -14z m-409 -983 c-13
-62 -29 -124 -51 -198 -10 -33 -23 -85 -30 -115 -16 -70 -39 -147 -55 -185 -8
-16 -17 -42 -20 -57 -4 -16 -10 -28 -14 -28 -11 0 -46 -63 -51 -94 -3 -16 -11
-32 -19 -34 -10 -3 -12 0 -8 12 4 9 2 16 -3 16 -6 0 -10 -4 -10 -10 0 -5 -7
-10 -15 -10 -8 0 -15 -6 -15 -14 0 -10 -10 -13 -34 -11 -27 3 -35 -1 -39 -16
-3 -11 -14 -19 -26 -19 -12 0 -21 -4 -21 -10 0 -5 -11 -10 -25 -10 -14 0 -25
-4 -25 -10 0 -5 5 -10 10 -10 6 0 10 -4 10 -10 0 -5 -9 -10 -21 -10 -12 0 -19
-5 -16 -12 2 -7 14 -12 27 -10 14 2 20 0 16 -7 -12 -18 -40 -12 -61 12 -16 17
-20 19 -23 7 -1 -9 -17 -21 -35 -28 l-32 -13 44 -19 c24 -11 50 -20 59 -20 14
0 13 -3 -3 -20 -15 -14 -35 -20 -76 -21 -50 -2 -56 -4 -51 -21 3 -15 7 -16 19
-7 10 9 17 9 25 1 6 -6 17 -8 24 -5 10 3 12 0 8 -10 -3 -10 2 -18 17 -22 21
-7 22 -8 3 -18 -10 -7 -21 -12 -24 -13 -3 0 -18 -6 -35 -13 l-30 -13 25 -13
25 -14 -27 -1 c-16 0 -28 -5 -28 -11 0 -6 6 -9 14 -6 22 9 27 -32 6 -53 -11
-11 -14 -22 -9 -27 5 -5 1 -18 -11 -31 -11 -11 -20 -25 -20 -29 -1 -13 -69
-83 -81 -83 -5 0 -8 -4 -4 -9 3 -5 -10 -14 -29 -21 -23 -7 -36 -19 -40 -35 -4
-14 -10 -25 -14 -25 -17 0 -152 -143 -152 -161 0 -5 -9 -9 -20 -9 -11 0 -20
-5 -20 -11 0 -20 -26 -36 -58 -35 -23 1 -32 -3 -31 -14 4 -25 -23 -71 -38 -66
-14 6 -18 -10 -4 -18 5 -3 9 -16 9 -29 0 -17 -6 -23 -19 -22 -10 1 -22 4 -25
8 -14 14 -26 7 -14 -8 17 -21 -12 -20 -45 1 -22 14 -23 16 -7 33 11 11 21 15
29 9 8 -7 10 -3 6 10 -2 11 0 23 7 27 8 5 8 10 -1 21 -9 11 -8 14 7 15 11 1
25 1 33 -1 10 -1 12 8 7 42 -4 29 -1 52 9 72 13 24 13 27 0 23 -16 -7 -10 17
10 43 7 8 18 38 24 65 15 62 33 105 45 105 4 0 6 12 3 27 -3 16 3 40 14 60 17
29 25 56 28 86 1 4 8 7 16 7 8 0 15 7 15 16 0 12 7 15 25 12 32 -7 38 20 11
50 -15 17 -16 22 -5 17 11 -4 18 1 22 16 5 19 8 20 21 9 13 -10 16 -10 16 4 0
9 -6 16 -12 17 -10 0 -10 2 0 6 9 3 7 11 -7 31 -22 33 -21 64 4 93 17 18 18
22 5 32 -9 7 -26 30 -38 51 -20 33 -21 43 -12 67 14 33 4 73 -16 65 -9 -3 -18
3 -23 17 -5 12 -23 38 -40 57 -17 19 -31 40 -32 45 -3 22 3 60 10 68 8 8 94
-44 106 -64 4 -5 21 -16 40 -23 18 -8 38 -24 45 -35 6 -12 18 -21 26 -21 9 0
44 -13 78 -29 121 -58 177 -74 261 -75 84 -1 155 21 155 48 0 8 11 21 25 30
14 9 25 22 25 30 0 7 9 21 20 31 11 10 20 28 20 40 0 11 5 26 11 32 5 5 16 34
24 63 7 28 20 59 28 69 8 9 18 32 22 51 4 19 14 44 21 55 8 11 14 26 14 35 0
8 11 37 25 64 14 27 25 57 25 66 0 9 4 20 10 26 11 11 41 106 35 112 -2 2 4
12 13 23 22 25 26 12 13 -48z"/>
<path d="M5370 6970 c-14 -5 -58 -18 -98 -30 -40 -12 -71 -24 -69 -28 3 -4 -6
-17 -19 -29 -15 -15 -24 -18 -27 -10 -4 9 -7 9 -18 0 -9 -10 -10 -13 -1 -13
22 0 12 -20 -13 -26 -14 -3 -25 -9 -25 -13 0 -9 -56 -42 -61 -36 -3 2 -10 -5
-17 -15 -15 -25 -5 -25 49 -1 32 15 45 17 51 8 4 -7 -4 -17 -20 -24 -26 -13
-26 -13 -2 -8 14 3 39 8 55 11 l30 6 -34 -31 c-37 -34 -38 -32 49 -49 30 -6
63 -13 73 -17 9 -4 17 -3 17 3 0 5 -11 13 -25 16 -45 11 -26 23 20 13 25 -6
45 -13 45 -16 0 -3 21 -6 48 -5 26 0 56 -4 66 -9 10 -5 33 -13 50 -18 29 -8
30 -7 11 7 -19 15 -19 15 10 8 17 -4 40 -11 53 -15 31 -12 41 -11 22 1 -13 9
-13 10 0 10 22 0 141 -50 175 -75 44 -32 115 -58 115 -43 0 7 7 3 15 -9 9 -12
22 -20 30 -17 7 3 23 -4 35 -16 12 -12 28 -19 35 -16 8 3 21 -4 28 -14 7 -11
22 -21 33 -23 30 -4 77 -49 62 -59 -18 -11 38 -8 87 5 22 6 46 19 52 28 8 11
21 15 34 12 19 -5 20 -4 8 16 -9 14 -21 19 -34 16 -11 -3 -14 -2 -7 1 6 3 12
14 12 24 0 20 23 43 33 33 4 -3 7 -1 7 5 0 7 -5 12 -11 12 -6 0 -9 6 -6 13 3
8 1 20 -4 28 -8 12 -12 11 -24 -5 -8 -11 -15 -15 -15 -9 0 7 4 14 9 17 4 3 6
17 4 31 -3 13 -10 22 -15 19 -6 -4 -8 1 -4 13 4 13 -1 30 -15 46 -24 31 -39
35 -40 10 0 -11 -3 -13 -6 -5 -2 6 -9 9 -14 6 -6 -3 -16 0 -24 6 -11 9 -22 10
-42 1 -30 -12 -94 -11 -86 2 2 4 -7 7 -21 7 -14 0 -28 5 -31 10 -3 6 -14 10
-24 10 -10 0 -24 7 -31 15 -7 8 -25 15 -41 15 -15 0 -31 5 -34 11 -4 6 -13 8
-21 5 -8 -3 -14 -1 -14 4 0 6 -6 10 -14 10 -7 0 -16 8 -19 19 -3 14 -12 18
-41 15 -24 -1 -36 1 -33 9 2 6 -10 22 -26 36 -26 22 -33 24 -68 14 -27 -7 -39
-7 -39 0 0 6 -3 7 -7 4 -9 -9 -32 24 -33 48 -1 11 -4 15 -6 8 -4 -8 -11 -7
-24 4 -21 19 -83 25 -120 13z"/>
<path d="M5325 6509 c-38 -4 -81 -12 -95 -18 -21 -10 -18 -10 23 -6 30 4 47 2
47 -4 0 -6 -3 -10 -7 -9 -5 1 -19 -4 -33 -10 -14 -6 -59 -21 -100 -33 -67 -19
-72 -23 -50 -31 17 -6 21 -11 12 -17 -12 -7 78 -51 106 -51 17 0 15 18 -4 37
-14 14 -11 17 26 34 55 25 68 24 64 -3 -2 -13 -5 -44 -7 -69 -4 -47 -4 -47 35
-60 21 -7 41 -17 44 -21 3 -5 17 -13 31 -19 18 -7 23 -14 18 -29 -5 -15 0 -21
22 -26 15 -4 33 -9 38 -13 6 -3 19 -7 30 -8 11 -2 27 -6 35 -10 8 -3 21 -7 29
-9 8 -1 17 -8 21 -15 4 -6 27 -13 51 -15 23 -3 48 -9 55 -15 7 -6 22 -8 33 -4
12 3 26 3 33 -1 13 -8 60 -13 53 -5 -3 2 0 10 6 18 9 10 8 18 -5 31 -23 27
-21 74 5 90 18 11 20 20 16 50 -4 19 -10 38 -14 41 -13 9 -73 89 -73 96 0 11
-44 44 -57 45 -7 0 -13 4 -13 8 0 4 -30 18 -67 30 -77 24 -202 33 -308 21z
m310 -128 c75 -74 86 -108 47 -148 -19 -19 -34 -23 -80 -23 -73 0 -90 10 -61
36 33 30 49 69 49 119 0 25 3 45 8 45 4 0 21 -13 37 -29z"/>
</g>
</svg>
